HIERARCHY
ROOT Hips
{
	OFFSET 0.000000 0.000000 0.000000
	CHANNELS 6 Xposition Yposition Zposition Zrotation Yrotation Xrotation 
	JOINT LHipJoint
	{
		OFFSET 0.000000 0.000000 0.000000
		CHANNELS 3 Zrotation Yrotation Xrotation
		JOINT LeftUpLeg
		{
			OFFSET 1.363060 -1.794630 0.839290
			CHANNELS 3 Zrotation Yrotation Xrotation
			JOINT LeftLeg
			{
				OFFSET 2.448110 -6.726130 0.000000
				CHANNELS 3 Zrotation Yrotation Xrotation
				JOINT LeftFoot
				{
					OFFSET 2.562200 -7.039590 0.000000
					CHANNELS 3 Zrotation Yrotation Xrotation
					JOINT LeftToeBase
					{
						OFFSET 0.157640 -0.433110 2.322550
						CHANNELS 3 Zrotation Yrotation Xrotation
						End Site
						{
							OFFSET 0.000000 0.000000 0.000000
						}
					}
				}
			}
		}
	}
	JOINT RHipJoint
	{
		OFFSET 0.000000 0.000000 0.000000
		CHANNELS 3 Zrotation Yrotation Xrotation
		JOINT RightUpLeg
		{
			OFFSET -1.305520 -1.794630 0.839290
			CHANNELS 3 Zrotation Yrotation Xrotation
			JOINT RightLeg
			{
				OFFSET -2.542530 -6.985550 0.000000
				CHANNELS 3 Zrotation Yrotation Xrotation
				JOINT RightFoot
				{
					OFFSET -2.568260 -7.056230 0.000000
					CHANNELS 3 Zrotation Yrotation Xrotation
					JOINT RightToeBase
					{
						OFFSET -0.164730 -0.452590 2.363150
						CHANNELS 3 Zrotation Yrotation Xrotation
						End Site
						{
							OFFSET 0.000000 0.000000 0.000000
						}
					}
				}
			}
		}
	}
	JOINT LowerBack
	{
		OFFSET 0.000000 0.000000 0.000000
		CHANNELS 3 Zrotation Yrotation Xrotation
		JOINT Spine
		{
			OFFSET 0.028270 2.035590 -0.193380
			CHANNELS 3 Zrotation Yrotation Xrotation
			JOINT Spine1
			{
				OFFSET 0.056720 2.048850 -0.042750
				CHANNELS 3 Zrotation Yrotation Xrotation
				JOINT Neck
				{
					OFFSET 0.000000 0.000000 0.000000
					CHANNELS 3 Zrotation Yrotation Xrotation
					JOINT Neck1
					{
						OFFSET -0.054170 1.746240 0.172020
						CHANNELS 3 Zrotation Yrotation Xrotation
						JOINT Head
						{
							OFFSET 0.104070 1.761360 -0.123970
							CHANNELS 3 Zrotation Yrotation Xrotation
							End Site
							{
								OFFSET 0.000000 0.000000 0.000000
							}
						}
					}
				}
				JOINT LeftShoulder
				{
					OFFSET 0.000000 0.000000 0.000000
					CHANNELS 3 Zrotation Yrotation Xrotation
					JOINT LeftArm
					{
						OFFSET 3.362410 1.200890 -0.311210
						CHANNELS 3 Zrotation Yrotation Xrotation
						JOINT LeftForeArm
						{
							OFFSET 4.983000 -0.000000 -0.000000
							CHANNELS 3 Zrotation Yrotation Xrotation
							JOINT LeftHand
							{
								OFFSET 3.483560 -0.000000 -0.000000
								CHANNELS 3 Zrotation Yrotation Xrotation
								JOINT LeftFingerBase
								{
									OFFSET 0.000000 0.000000 0.000000
									CHANNELS 3 Zrotation Yrotation Xrotation
									JOINT LeftHandIndex1
									{
										OFFSET 0.715260 -0.000000 -0.000000
										CHANNELS 3 Zrotation Yrotation Xrotation
										End Site
										{
											OFFSET 0.000000 0.000000 0.000000
										}
									}
								}
								JOINT LThumb
								{
									OFFSET 0.000000 0.000000 0.000000
									CHANNELS 3 Zrotation Yrotation Xrotation
									End Site
									{
										OFFSET 0.000000 0.000000 0.000000
									}
								}
							}
						}
					}
				}
				JOINT RightShoulder
				{
					OFFSET 0.000000 0.000000 0.000000
					CHANNELS 3 Zrotation Yrotation Xrotation
					JOINT RightArm
					{
						OFFSET -3.136600 1.374050 -0.404650
						CHANNELS 3 Zrotation Yrotation Xrotation
						JOINT RightForeArm
						{
							OFFSET -5.241900 -0.000000 -0.000000
							CHANNELS 3 Zrotation Yrotation Xrotation
							JOINT RightHand
							{
								OFFSET -3.444170 -0.000000 -0.000000
								CHANNELS 3 Zrotation Yrotation Xrotation
								JOINT RightFingerBase
								{
									OFFSET 0.000000 0.000000 0.000000
									CHANNELS 3 Zrotation Yrotation Xrotation
									JOINT RightHandIndex1
									{
										OFFSET -0.622530 -0.000000 -0.000000
										CHANNELS 3 Zrotation Yrotation Xrotation
										End Site
										{
											OFFSET 0.000000 0.000000 0.000000
										}
									}
								}
								JOINT RThumb
								{
									OFFSET 0.000000 0.000000 0.000000
									CHANNELS 3 Zrotation Yrotation Xrotation
									End Site
									{
										OFFSET 0.000000 0.000000 0.000000
									}
								}
							}
						}
					}
				}
			}
		}
	}
}
MOTION
Frames: 9
Frame Time: 0.033333
-0.045347 16.461713 -0.045347 -3.123819 -3.205267 4.023979 -2.171834 18.675289 3.411270 -16.311354 -6.117213 -14.610112 -8.573284 -10.287170 -28.251910 5.146135 20.572457 49.538613 0.000000 0.000000 0.000000 -3.016001 -21.521363 -6.080883 31.744955 3.964736 -2.829272 -1.999885 -4.737669 21.077409 -0.596668 11.164722 -28.532992 0.000000 0.000000 0.000000 2.196046 0.633988 5.759787 0.602007 0.567526 13.290511 1.724041 1.500932 -7.863514 7.275010 -1.246783 -10.759795 -3.238905 -0.282173 -2.202590 0.000000 0.000000 0.000000 3.210495 9.221005 8.615301 -70.483389 -5.639708 16.677526 -7.817320 -82.251626 0.182880 4.832859 -15.948897 0.079645 4.953908 -15.919970 0.000000 0.000000 0.000000 0.000000 0.000000 0.000000 0.000000 -8.514943 -7.621335 7.600079 70.894037 6.433628 18.360613 11.377241 82.600030 0.389356 -1.968229 13.801905 0.190367 -2.008483 13.800114 0.000000 0.000000 0.000000 0.000000 0.000000 0.000000 0.000000 
-0.037176 16.491062 0.111873 -2.764152 -3.246837 4.138918 -1.867961 18.732284 3.264033 -17.169302 -6.021329 -14.091798 -8.417280 -10.025291 -27.427157 4.504737 19.595551 47.287136 0.000000 0.000000 0.000000 -2.770470 -21.562040 -5.718926 31.209601 4.799934 -3.678667 -2.781618 -5.038063 22.976184 -0.574274 11.140058 -28.615555 0.000000 0.000000 0.000000 2.000070 0.661181 5.609659 0.434655 0.551232 13.327800 1.722286 1.466364 -7.940932 7.183222 -1.226982 -10.654206 -3.162096 -0.273374 -2.153740 0.000000 0.000000 0.000000 3.153487 9.237370 8.620578 -70.432474 -5.620958 16.783358 -7.960634 -82.170320 0.189056 4.782025 -15.937427 0.082841 4.901748 -15.909138 0.000000 0.000000 0.000000 0.000000 0.000000 0.000000 0.000000 -8.375445 -7.750839 7.585181 70.796603 6.376302 18.398714 11.487194 82.483784 0.389662 -1.944947 13.782305 0.190556 -1.984800 13.780636 0.000000 0.000000 0.000000 0.000000 0.000000 0.000000 0.000000 
-0.026751 16.522231 0.268497 -2.407016 -3.260792 4.261808 -1.594111 18.765538 3.092280 -17.994101 -5.936782 -13.604385 -8.261435 -9.738370 -26.509436 3.906170 18.579875 44.968220 0.000000 0.000000 0.000000 -2.502504 -21.540588 -5.330467 30.593581 5.609371 -4.546046 -3.493812 -5.320637 24.755022 -0.532067 11.036693 -28.578167 0.000000 0.000000 0.000000 1.808863 0.678279 5.451776 0.271321 0.525745 13.361916 1.721388 1.423381 -8.017317 7.091841 -1.207484 -10.547844 -3.086471 -0.264804 -2.104705 0.000000 0.000000 0.000000 3.096208 9.249062 8.626868 -70.381670 -5.603219 16.888472 -8.104671 -82.088411 0.195187 4.731147 -15.925751 0.086014 4.849549 -15.898093 0.000000 0.000000 0.000000 0.000000 0.000000 0.000000 0.000000 -8.236484 -7.884059 7.570166 70.698510 6.317863 18.435836 11.597128 82.367560 0.389937 -1.921823 13.762639 0.190729 -1.961280 13.761090 0.000000 0.000000 0.000000 0.000000 0.000000 0.000000 0.000000 
-0.014122 16.554772 0.424123 -2.056450 -3.248861 4.389594 -1.349821 18.780435 2.899974 -18.781283 -5.864472 -13.151595 -8.108927 -9.426698 -25.504883 3.355178 17.536777 42.603428 0.000000 0.000000 0.000000 -2.220162 -21.464113 -4.923177 29.910196 6.378394 -5.416731 -4.135742 -5.589051 26.408781 -0.473433 10.865861 -28.432068 0.000000 0.000000 0.000000 1.625770 0.685388 5.289317 0.112947 0.491547 13.393749 1.720782 1.372652 -8.092784 7.000724 -1.188281 -10.440721 -3.011984 -0.256455 -2.055592 0.000000 0.000000 0.000000 3.038521 9.256549 8.634041 -70.330950 -5.586418 16.992828 -8.249343 -82.005928 0.201272 4.680253 -15.913867 0.089163 4.797339 -15.886837 0.000000 0.000000 0.000000 0.000000 0.000000 0.000000 0.000000 -8.098243 -8.020603 7.555011 70.599843 6.258559 18.472008 11.707031 82.251349 0.390182 -1.898853 13.742900 0.190886 -1.937920 13.741468 0.000000 0.000000 0.000000 0.000000 0.000000 0.000000 0.000000 
0.000145 16.588276 0.578388 -1.715555 -3.213591 4.519681 -1.134525 18.781647 2.691643 -19.527525 -5.805619 -12.736387 -7.956200 -9.092098 -24.422346 2.853590 16.476434 40.216428 0.000000 0.000000 0.000000 -1.929821 -21.340060 -4.504100 29.171662 7.096147 -6.278621 -4.704038 -5.848991 27.937581 -0.401306 10.637055 -28.189092 0.000000 0.000000 0.000000 1.453253 0.683014 5.124988 -0.039845 0.449360 13.424060 1.719984 1.315001 -8.167434 6.909756 -1.169355 -10.332852 -2.938558 -0.248316 -2.006498 0.000000 0.000000 0.000000 2.980325 9.260378 8.641971 -70.280278 -5.570460 17.096399 -8.394567 -81.922905 0.207312 4.629368 -15.901776 0.092289 4.745143 -15.875367 0.000000 0.000000 0.000000 0.000000 0.000000 0.000000 0.000000 -7.960861 -8.160025 7.539700 70.500686 6.198637 18.507277 11.816894 82.135137 0.390398 -1.876036 13.723082 0.191029 -1.914716 13.721767 0.000000 0.000000 0.000000 0.000000 0.000000 0.000000 0.000000 
0.016574 16.622301 0.731557 -1.387624 -3.157650 4.649524 -0.944542 18.775697 2.469826 -20.233393 -5.758681 -12.357434 -7.812032 -8.733376 -23.265839 2.400728 15.407095 37.815476 0.000000 0.000000 0.000000 -1.635804 -21.177365 -4.078375 28.392747 7.757015 -7.121951 -5.213457 -6.100196 29.348856 -0.319828 10.362920 -27.861108 0.000000 0.000000 0.000000 1.288497 0.672366 4.960969 -0.161289 0.397826 13.462273 1.700769 1.254200 -8.279537 6.796038 -1.145538 -10.203550 -2.850574 -0.238807 -1.948439 0.000000 0.000000 0.000000 2.885205 9.290091 8.651429 -70.217363 -5.529085 17.263273 -8.658973 -81.774374 0.217789 4.537179 -15.876268 0.097728 4.650543 -15.850977 0.000000 0.000000 0.000000 0.000000 0.000000 0.000000 0.000000 -7.782461 -8.341893 7.531858 70.350935 6.120371 18.552563 12.013411 81.925538 0.390267 -1.836580 13.683343 0.191027 -1.874580 13.682221 0.000000 0.000000 0.000000 0.000000 0.000000 0.000000 0.000000 
0.034691 16.656483 0.883262 -1.073151 -3.084283 4.777114 -0.780887 18.765956 2.239008 -20.896652 -5.723890 -12.016645 -7.672971 -8.352613 -22.045722 1.995646 14.338638 35.422722 0.000000 0.000000 0.000000 -1.343492 -20.983739 -3.651650 27.585313 8.356529 -7.937698 -5.665120 -6.345844 30.646602 -0.231861 10.051693 -27.458657 0.000000 0.000000 0.000000 1.137112 0.653681 4.799990 -0.276478 0.340061 13.499693 1.680494 1.188242 -8.391588 6.682183 -1.121931 -10.072986 -2.763287 -0.229504 -1.890451 0.000000 0.000000 0.000000 2.788968 9.317929 8.661552 -70.153834 -5.488249 17.429138 -8.925472 -81.623691 0.228222 4.444676 -15.849834 0.103143 4.555626 -15.825648 0.000000 0.000000 0.000000 0.000000 0.000000 0.000000 0.000000 -7.604682 -8.526564 7.523841 70.199815 6.042196 18.596393 12.210858 81.714074 0.390085 -1.797264 13.642951 0.191000 -1.834589 13.642018 0.000000 0.000000 0.000000 0.000000 0.000000 0.000000 0.000000 
0.053681 16.690469 1.033487 -0.772759 -2.996730 4.901071 -0.641871 18.755405 2.002902 -21.518404 -5.701846 -11.713192 -7.530139 -7.953108 -20.771649 1.634938 13.275997 33.053146 0.000000 0.000000 0.000000 -1.055650 -20.765956 -3.228002 26.758736 8.893884 -8.720326 -6.058688 -6.590429 31.840342 -0.139249 9.709867 -26.993169 0.000000 0.000000 0.000000 0.999342 0.627972 4.643440 -0.385501 0.277005 13.536648 1.658947 1.118009 -8.503656 6.568166 -1.098508 -9.941178 -2.676592 -0.220395 -1.832578 0.000000 0.000000 0.000000 2.691594 9.344450 8.672253 -70.089640 -5.447845 17.593979 -9.193998 -81.470857 0.238610 4.351884 -15.822458 0.108535 4.460420 -15.799364 0.000000 0.000000 0.000000 0.000000 0.000000 0.000000 0.000000 -7.427553 -8.713629 7.515644 70.047366 5.964296 18.638822 12.409215 81.500701 0.389855 -1.758090 13.601895 0.190948 -1.794745 13.601147 0.000000 0.000000 0.000000 0.000000 0.000000 0.000000 0.000000 
0.073566 16.723980 1.181978 -0.487640 -2.898344 5.020260 -0.527119 18.747272 1.764635 -22.097512 -5.691856 -11.447433 -7.385259 -7.536211 -19.452232 1.316230 12.227994 30.722018 0.000000 0.000000 0.000000 -0.774767 -20.531030 -2.810887 25.924852 9.369767 -9.464433 -6.403219 -6.832766 32.936227 -0.044661 9.345365 -26.472781 0.000000 0.000000 0.000000 0.875968 0.596198 4.492461 -0.488662 0.209696 13.573302 1.636083 1.044447 -8.615322 6.454231 -1.075313 -9.808409 -2.590591 -0.211490 -1.774971 0.000000 0.000000 0.000000 2.593494 9.369908 8.683419 -70.024885 -5.408065 17.757008 -9.462983 -81.316709 0.248900 4.259346 -15.794306 0.113876 4.365478 -15.772285 0.000000 0.000000 0.000000 0.000000 0.000000 0.000000 0.000000 -7.251640 -8.902112 7.507191 69.894261 5.887087 18.679797 12.607394 81.286561 0.389582 -1.719263 13.560420 0.190875 -1.755255 13.559852 0.000000 0.000000 0.000000 0.000000 0.000000 0.000000 0.000000 
